<svg width="1280" height="420" viewBox="0 0 1280 420" fill="none" xmlns="http://www.w3.org/2000/svg">
  <defs>
    <linearGradient id="bg" x1="0" y1="0" x2="1280" y2="420" gradientUnits="userSpaceOnUse">
      <stop offset="0" stop-color="#101827"/>
      <stop offset="0.52" stop-color="#172033"/>
      <stop offset="1" stop-color="#283119"/>
    </linearGradient>
    <linearGradient id="accent" x1="260" y1="94" x2="1017" y2="299" gradientUnits="userSpaceOnUse">
      <stop offset="0" stop-color="#F7D774"/>
      <stop offset="0.45" stop-color="#8FE3CF"/>
      <stop offset="1" stop-color="#A7C7FF"/>
    </linearGradient>
  </defs>
  <rect width="1280" height="420" rx="40" fill="url(#bg)"/>
  <path d="M138 106H316C342.51 106 364 127.49 364 154V314H186C159.49 314 138 292.51 138 266V106Z" fill="#F9F3E7"/>
  <path d="M178 150H323" stroke="#182033" stroke-width="10" stroke-linecap="round"/>
  <path d="M178 190H309" stroke="#182033" stroke-width="10" stroke-linecap="round"/>
  <path d="M178 230H286" stroke="#182033" stroke-width="10" stroke-linecap="round"/>
  <path d="M138 106L206 66H384C410.51 66 432 87.49 432 114V274L364 314V154C364 127.49 342.51 106 316 106H138Z" fill="#74D4C0"/>
  <text x="488" y="175" fill="url(#accent)" font-size="82" font-family="Inter, Segoe UI, Arial, sans-serif" font-weight="800" letter-spacing="1">PlotRail</text>
  <text x="491" y="239" fill="#F9F3E7" font-size="38" font-family="Inter, Segoe UI, Arial, sans-serif" font-weight="650">Canon-aware AI fiction workflow</text>
</svg>
